<svg width="24" height="24" viewBox="0 0 24 24" fill="none" xmlns="http://www.w3.org/2000/svg">
<path d="M19.95 21.0004C17.8 21.0004 15.7043 20.521 13.663 19.5624C11.621 18.6044 9.81267 17.3377 8.238 15.7624C6.66267 14.1877 5.396 12.3794 4.438 10.3374C3.47933 8.29603 3 6.20037 3 4.05037C3 3.75037 3.1 3.50037 3.3 3.30037C3.5 3.10037 3.75 3.00037 4.05 3.00037H8.1C8.33333 3.00037 8.54167 3.07537 8.725 3.22537C8.90833 3.37537 9.01667 3.56703 9.05 3.80037L9.7 7.30037C9.73333 7.5337 9.72933 7.74603 9.688 7.93737C9.646 8.12937 9.55 8.30037 9.4 8.45037L6.975 10.9004C7.675 12.1004 8.55433 13.2254 9.613 14.2754C10.671 15.3254 11.8333 16.2337 13.1 17.0004L15.45 14.6504C15.6 14.5004 15.796 14.3877 16.038 14.3124C16.2793 14.2377 16.5167 14.217 16.75 14.2504L20.2 14.9504C20.4333 15.0004 20.625 15.1127 20.775 15.2874C20.925 15.4627 21 15.667 21 15.9004V19.9504C21 20.2504 20.9 20.5004 20.7 20.7004C20.5 20.9004 20.25 21.0004 19.95 21.0004ZM6.025 9.00037L7.675 7.35037L7.25 5.00037H5.025C5.10833 5.6837 5.225 6.3587 5.375 7.02537C5.525 7.69203 5.74167 8.35037 6.025 9.00037ZM19 18.9504V16.7504L16.65 16.2754L14.975 17.9504C15.625 18.2337 16.2877 18.4587 16.963 18.6254C17.6377 18.792 18.3167 18.9004 19 18.9504Z" fill="url(#paint0_linear_17_334)"/>
<defs>
<linearGradient id="paint0_linear_17_334" x1="12" y1="3.00037" x2="12" y2="21.0004" gradientUnits="userSpaceOnUse">
<stop stop-color="#FD5472"/>
<stop offset="1" stop-color="#BC2649"/>
</linearGradient>
</defs>
</svg>
