<svg width="24" height="24" viewBox="0 0 24 24" fill="none" xmlns="http://www.w3.org/2000/svg">
<path d="M13.25 21.225C12.8833 21.225 12.6167 21.1084 12.45 20.875C12.2833 20.6417 12.2667 20.35 12.4 20L15.775 11.05C15.875 10.8 16.05 10.5874 16.3 10.412C16.55 10.2374 16.8167 10.15 17.1 10.15C17.35 10.15 17.6043 10.2374 17.863 10.412C18.121 10.5874 18.3 10.8 18.4 11.05L21.775 20C21.9083 20.35 21.8917 20.6417 21.725 20.875C21.5583 21.1084 21.2833 21.225 20.9 21.225C20.7333 21.225 20.5793 21.1707 20.438 21.062C20.296 20.954 20.1917 20.825 20.125 20.675L19.35 18.4H14.875L14.075 20.65C14.0083 20.8167 13.896 20.954 13.738 21.062C13.5793 21.1707 13.4167 21.225 13.25 21.225ZM15.425 16.8H18.75L17.125 12.225H17.05L15.425 16.8ZM7.525 8.80002C7.75833 9.23336 8.01667 9.64169 8.3 10.025C8.58333 10.4084 8.90833 10.8 9.275 11.2C9.95833 10.4667 10.525 9.71269 10.975 8.93802C11.425 8.16269 11.8 7.33336 12.1 6.45002H2.775C2.525 6.45002 2.31267 6.36269 2.138 6.18802C1.96267 6.01269 1.875 5.80002 1.875 5.55002C1.875 5.28336 1.96267 5.06236 2.138 4.88702C2.31267 4.71236 2.53333 4.62502 2.8 4.62502H8.325V3.70002C8.325 3.43336 8.41267 3.21236 8.588 3.03702C8.76267 2.86236 8.98333 2.77502 9.25 2.77502C9.51667 2.77502 9.73767 2.86236 9.913 3.03702C10.0877 3.21236 10.175 3.43336 10.175 3.70002V4.62502H15.7C15.9667 4.62502 16.1877 4.71236 16.363 4.88702C16.5377 5.06236 16.625 5.28336 16.625 5.55002C16.625 5.80002 16.5377 6.01269 16.363 6.18802C16.1877 6.36269 15.9667 6.45002 15.7 6.45002H13.95C13.6167 7.55002 13.175 8.61236 12.625 9.63702C12.075 10.6624 11.3917 11.6334 10.575 12.55L12.8 14.8L12.1 16.7L9.25 13.85L5.275 17.8C5.10833 17.9834 4.896 18.075 4.638 18.075C4.37933 18.075 4.15833 17.9834 3.975 17.8C3.80833 17.6334 3.725 17.421 3.725 17.163C3.725 16.9044 3.80833 16.6834 3.975 16.5L8 12.5C7.58333 12.0167 7.2 11.5334 6.85 11.05C6.5 10.5667 6.19167 10.0584 5.925 9.52502C5.74167 9.20836 5.72933 8.92502 5.888 8.67502C6.046 8.42502 6.31667 8.30002 6.7 8.30002C6.85 8.30002 7.00433 8.35002 7.163 8.45002C7.321 8.55002 7.44167 8.66669 7.525 8.80002Z" fill="url(#paint0_linear_14_148)"/>
<defs>
<linearGradient id="paint0_linear_14_148" x1="11.8694" y1="2.77502" x2="11.8694" y2="21.225" gradientUnits="userSpaceOnUse">
<stop stop-color="#FD5472"/>
<stop offset="1" stop-color="#BC2649"/>
</linearGradient>
</defs>
</svg>
