<svg width="302" height="40" viewBox="0 0 302 40" fill="none" xmlns="http://www.w3.org/2000/svg">
<path d="M7.992 5.73602V39H0.119995V5.73602H7.992Z" fill="#141414"/>
<path d="M23.0145 12.696C24.8385 12.696 26.5505 12.968 28.1505 13.512C29.7505 14.056 31.1585 14.824 32.3745 15.816L29.5905 20.088C27.5105 18.776 25.4145 18.12 23.3025 18.12C22.3105 18.12 21.5425 18.296 20.9985 18.648C20.4865 18.968 20.2305 19.432 20.2305 20.04C20.2305 20.52 20.3425 20.92 20.5665 21.24C20.8225 21.528 21.3185 21.832 22.0545 22.152C22.7905 22.472 23.9265 22.856 25.4625 23.304C28.1185 24.072 30.0865 25.08 31.3665 26.328C32.6785 27.544 33.3345 29.24 33.3345 31.416C33.3345 33.144 32.8385 34.648 31.8465 35.928C30.8545 37.176 29.4945 38.136 27.7665 38.808C26.0385 39.48 24.1185 39.816 22.0065 39.816C19.8625 39.816 17.8625 39.48 16.0065 38.808C14.1825 38.136 12.6305 37.208 11.3505 36.024L15.0465 31.896C17.1905 33.56 19.4465 34.392 21.8145 34.392C22.9665 34.392 23.8625 34.184 24.5025 33.768C25.1745 33.352 25.5105 32.76 25.5105 31.992C25.5105 31.384 25.3825 30.904 25.1265 30.552C24.8705 30.2 24.3745 29.88 23.6385 29.592C22.9025 29.272 21.7345 28.888 20.1345 28.44C17.6065 27.704 15.7185 26.68 14.4705 25.368C13.2225 24.056 12.5985 22.424 12.5985 20.472C12.5985 19 13.0145 17.688 13.8465 16.536C14.7105 15.352 15.9265 14.424 17.4945 13.752C19.0945 13.048 20.9345 12.696 23.0145 12.696Z" fill="#141414"/>
<path d="M57.0289 31.608C57.0289 32.568 57.1569 33.272 57.4129 33.72C57.7009 34.168 58.1489 34.504 58.7569 34.728L57.1729 39.672C55.6049 39.544 54.3249 39.208 53.3329 38.664C52.3409 38.088 51.5729 37.192 51.0289 35.976C49.3649 38.536 46.8049 39.816 43.3489 39.816C40.8209 39.816 38.8049 39.08 37.3009 37.608C35.7969 36.136 35.0449 34.216 35.0449 31.848C35.0449 29.064 36.0689 26.936 38.1169 25.464C40.1649 23.992 43.1249 23.256 46.9969 23.256H49.5889V22.152C49.5889 20.648 49.2689 19.624 48.6289 19.08C47.9889 18.504 46.8689 18.216 45.2689 18.216C44.4369 18.216 43.4289 18.344 42.2449 18.6C41.0609 18.824 39.8449 19.144 38.5969 19.56L36.8689 14.568C38.4689 13.96 40.1009 13.496 41.7649 13.176C43.4609 12.856 45.0289 12.696 46.4689 12.696C50.1169 12.696 52.7889 13.448 54.4849 14.952C56.1809 16.456 57.0289 18.712 57.0289 21.72V31.608ZM45.5569 34.392C47.2849 34.392 48.6289 33.576 49.5889 31.944V27.432H47.7169C45.9889 27.432 44.6929 27.736 43.8289 28.344C42.9969 28.952 42.5809 29.896 42.5809 31.176C42.5809 32.2 42.8369 33 43.3489 33.576C43.8929 34.12 44.6289 34.392 45.5569 34.392Z" fill="#141414"/>
<path d="M77.5177 12.696C80.5577 12.696 82.8937 13.896 84.5257 16.296C86.1577 18.664 86.9737 21.992 86.9737 26.28C86.9737 28.904 86.5577 31.24 85.7257 33.288C84.9257 35.336 83.7577 36.936 82.2217 38.088C80.7177 39.24 78.9257 39.816 76.8457 39.816C75.4697 39.816 74.2057 39.528 73.0537 38.952C71.9337 38.376 70.9737 37.576 70.1737 36.552L69.7897 39H63.0697V3.38402L70.6537 2.56802V16.104C71.4217 15.048 72.3977 14.216 73.5817 13.608C74.7977 13 76.1097 12.696 77.5177 12.696ZM74.6377 34.296C77.6137 34.296 79.1017 31.624 79.1017 26.28C79.1017 23.24 78.7497 21.144 78.0457 19.992C77.3417 18.84 76.3177 18.264 74.9737 18.264C73.2777 18.264 71.8377 19.256 70.6537 21.24V31.848C71.1337 32.616 71.7097 33.224 72.3817 33.672C73.0857 34.088 73.8377 34.296 74.6377 34.296Z" fill="#141414"/>
<path d="M113.934 25.752C113.934 26.808 113.886 27.72 113.79 28.488H97.9984C98.2544 30.632 98.8624 32.136 99.8224 33C100.782 33.864 102.11 34.296 103.806 34.296C104.83 34.296 105.822 34.12 106.782 33.768C107.742 33.384 108.782 32.808 109.902 32.04L113.022 36.264C110.046 38.632 106.734 39.816 103.086 39.816C98.9584 39.816 95.7904 38.6 93.5824 36.168C91.3744 33.736 90.2704 30.472 90.2704 26.376C90.2704 23.784 90.7344 21.464 91.6624 19.416C92.5904 17.336 93.9504 15.704 95.7424 14.52C97.5344 13.304 99.6784 12.696 102.174 12.696C105.854 12.696 108.734 13.848 110.814 16.152C112.894 18.456 113.934 21.656 113.934 25.752ZM106.494 23.592C106.43 19.688 105.054 17.736 102.366 17.736C101.054 17.736 100.03 18.216 99.2944 19.176C98.5904 20.136 98.1584 21.72 97.9984 23.928H106.494V23.592Z" fill="#141414"/>
<path d="M124.963 39.816C122.755 39.816 121.027 39.192 119.779 37.944C118.563 36.664 117.955 34.856 117.955 32.52V3.38402L125.539 2.56802V32.232C125.539 33.288 125.971 33.816 126.835 33.816C127.283 33.816 127.699 33.736 128.083 33.576L129.571 38.952C128.195 39.528 126.659 39.816 124.963 39.816Z" fill="#141414"/>
<path d="M139.213 39.816C137.005 39.816 135.277 39.192 134.029 37.944C132.813 36.664 132.205 34.856 132.205 32.52V3.38402L139.789 2.56802V32.232C139.789 33.288 140.221 33.816 141.085 33.816C141.533 33.816 141.949 33.736 142.333 33.576L143.821 38.952C142.445 39.528 140.909 39.816 139.213 39.816Z" fill="#141414"/>
<path d="M166.716 31.608C166.716 32.568 166.844 33.272 167.1 33.72C167.388 34.168 167.836 34.504 168.444 34.728L166.86 39.672C165.292 39.544 164.012 39.208 163.02 38.664C162.028 38.088 161.26 37.192 160.716 35.976C159.052 38.536 156.492 39.816 153.036 39.816C150.508 39.816 148.492 39.08 146.988 37.608C145.484 36.136 144.732 34.216 144.732 31.848C144.732 29.064 145.756 26.936 147.804 25.464C149.852 23.992 152.812 23.256 156.684 23.256H159.276V22.152C159.276 20.648 158.956 19.624 158.316 19.08C157.676 18.504 156.556 18.216 154.956 18.216C154.124 18.216 153.116 18.344 151.932 18.6C150.748 18.824 149.532 19.144 148.284 19.56L146.556 14.568C148.156 13.96 149.788 13.496 151.452 13.176C153.148 12.856 154.716 12.696 156.156 12.696C159.804 12.696 162.476 13.448 164.172 14.952C165.868 16.456 166.716 18.712 166.716 21.72V31.608ZM155.244 34.392C156.972 34.392 158.316 33.576 159.276 31.944V27.432H157.404C155.676 27.432 154.38 27.736 153.516 28.344C152.684 28.952 152.268 29.896 152.268 31.176C152.268 32.2 152.524 33 153.036 33.576C153.58 34.12 154.316 34.392 155.244 34.392Z" fill="#141414"/>
<path d="M209.204 5.73602L199.94 39H190.148L180.548 5.73602H188.852L195.188 32.856L201.14 5.73602H209.204Z" fill="#141414"/>
<path d="M219.107 13.512V39H211.523V13.512H219.107ZM215.267 0.0720215C216.579 0.0720215 217.651 0.488022 218.483 1.32002C219.347 2.12002 219.779 3.14402 219.779 4.39202C219.779 5.64002 219.347 6.68002 218.483 7.51202C217.651 8.31202 216.579 8.71202 215.267 8.71202C213.955 8.71202 212.883 8.31202 212.051 7.51202C211.219 6.68002 210.803 5.64002 210.803 4.39202C210.803 3.14402 211.219 2.12002 212.051 1.32002C212.883 0.488022 213.955 0.0720215 215.267 0.0720215Z" fill="#141414"/>
<path d="M245.326 31.608C245.326 32.568 245.454 33.272 245.71 33.72C245.998 34.168 246.446 34.504 247.054 34.728L245.47 39.672C243.902 39.544 242.622 39.208 241.63 38.664C240.638 38.088 239.87 37.192 239.326 35.976C237.662 38.536 235.102 39.816 231.646 39.816C229.118 39.816 227.102 39.08 225.598 37.608C224.094 36.136 223.342 34.216 223.342 31.848C223.342 29.064 224.366 26.936 226.414 25.464C228.462 23.992 231.422 23.256 235.294 23.256H237.886V22.152C237.886 20.648 237.566 19.624 236.926 19.08C236.286 18.504 235.166 18.216 233.566 18.216C232.734 18.216 231.726 18.344 230.542 18.6C229.358 18.824 228.142 19.144 226.894 19.56L225.166 14.568C226.766 13.96 228.398 13.496 230.062 13.176C231.758 12.856 233.326 12.696 234.766 12.696C238.414 12.696 241.086 13.448 242.782 14.952C244.478 16.456 245.326 18.712 245.326 21.72V31.608ZM233.854 34.392C235.582 34.392 236.926 33.576 237.886 31.944V27.432H236.014C234.286 27.432 232.99 27.736 232.126 28.344C231.294 28.952 230.878 29.896 230.878 31.176C230.878 32.2 231.134 33 231.646 33.576C232.19 34.12 232.926 34.392 233.854 34.392Z" fill="#141414"/>
<path d="M266.295 12.696C268.503 12.696 270.231 13.368 271.479 14.712C272.727 16.056 273.351 17.944 273.351 20.376V39H265.767V21.672C265.767 20.392 265.559 19.512 265.143 19.032C264.759 18.52 264.167 18.264 263.367 18.264C261.831 18.264 260.359 19.368 258.951 21.576V39H251.367V13.512H257.991L258.519 16.536C259.607 15.256 260.775 14.296 262.023 13.656C263.303 13.016 264.727 12.696 266.295 12.696Z" fill="#141414"/>
<path d="M299.326 31.608C299.326 32.568 299.454 33.272 299.71 33.72C299.998 34.168 300.446 34.504 301.054 34.728L299.47 39.672C297.902 39.544 296.622 39.208 295.63 38.664C294.638 38.088 293.87 37.192 293.326 35.976C291.662 38.536 289.102 39.816 285.646 39.816C283.118 39.816 281.102 39.08 279.598 37.608C278.094 36.136 277.342 34.216 277.342 31.848C277.342 29.064 278.366 26.936 280.414 25.464C282.462 23.992 285.422 23.256 289.294 23.256H291.886V22.152C291.886 20.648 291.566 19.624 290.926 19.08C290.286 18.504 289.166 18.216 287.566 18.216C286.734 18.216 285.726 18.344 284.542 18.6C283.358 18.824 282.142 19.144 280.894 19.56L279.166 14.568C280.766 13.96 282.398 13.496 284.062 13.176C285.758 12.856 287.326 12.696 288.766 12.696C292.414 12.696 295.086 13.448 296.782 14.952C298.478 16.456 299.326 18.712 299.326 21.72V31.608ZM287.854 34.392C289.582 34.392 290.926 33.576 291.886 31.944V27.432H290.014C288.286 27.432 286.99 27.736 286.126 28.344C285.294 28.952 284.878 29.896 284.878 31.176C284.878 32.2 285.134 33 285.646 33.576C286.19 34.12 286.926 34.392 287.854 34.392Z" fill="#141414"/>
</svg>
