<svg width="24" height="24" viewBox="0 0 24 24" fill="none" xmlns="http://www.w3.org/2000/svg">
<path d="M12 22.0004C10.6333 22.0004 9.34167 21.7377 8.125 21.2124C6.90833 20.6877 5.846 19.971 4.938 19.0624C4.02933 18.1544 3.31267 17.092 2.788 15.8754C2.26267 14.6587 2 13.367 2 12.0004C2 10.617 2.26267 9.32137 2.788 8.11337C3.31267 6.9047 4.02933 5.84637 4.938 4.93837C5.846 4.0297 6.90833 3.3127 8.125 2.78737C9.34167 2.2627 10.6333 2.00037 12 2.00037C13.3833 2.00037 14.679 2.2627 15.887 2.78737C17.0957 3.3127 18.154 4.0297 19.062 4.93837C19.9707 5.84637 20.6873 6.9047 21.212 8.11337C21.7373 9.32137 22 10.617 22 12.0004V13.4504C22 14.4337 21.6627 15.271 20.988 15.9624C20.3127 16.6544 19.4833 17.0004 18.5 17.0004C17.9 17.0004 17.3417 16.867 16.825 16.6004C16.3083 16.3337 15.8833 15.9837 15.55 15.5504C15.1 16.0004 14.571 16.3547 13.963 16.6134C13.3543 16.8714 12.7 17.0004 12 17.0004C10.6167 17.0004 9.43767 16.5127 8.463 15.5374C7.48767 14.5627 7 13.3837 7 12.0004C7 10.617 7.48767 9.4377 8.463 8.46237C9.43767 7.4877 10.6167 7.00037 12 7.00037C13.3833 7.00037 14.5627 7.4877 15.538 8.46237C16.5127 9.4377 17 10.617 17 12.0004V13.4504C17 13.9337 17.15 14.3127 17.45 14.5874C17.75 14.8627 18.1 15.0004 18.5 15.0004C18.9 15.0004 19.25 14.8627 19.55 14.5874C19.85 14.3127 20 13.9337 20 13.4504V12.0004C20 9.81703 19.2123 7.9377 17.637 6.36237C16.0623 4.7877 14.1833 4.00037 12 4.00037C9.81667 4.00037 7.93733 4.7877 6.362 6.36237C4.78733 7.9377 4 9.81703 4 12.0004C4 14.1837 4.78733 16.0627 6.362 17.6374C7.93733 19.2127 9.81667 20.0004 12 20.0004H16C16.2833 20.0004 16.5207 20.0964 16.712 20.2884C16.904 20.4797 17 20.717 17 21.0004C17 21.2837 16.904 21.521 16.712 21.7124C16.5207 21.9044 16.2833 22.0004 16 22.0004H12ZM12 15.0004C12.8333 15.0004 13.5417 14.7087 14.125 14.1254C14.7083 13.542 15 12.8337 15 12.0004C15 11.167 14.7083 10.4587 14.125 9.87537C13.5417 9.29203 12.8333 9.00037 12 9.00037C11.1667 9.00037 10.4583 9.29203 9.875 9.87537C9.29167 10.4587 9 11.167 9 12.0004C9 12.8337 9.29167 13.542 9.875 14.1254C10.4583 14.7087 11.1667 15.0004 12 15.0004Z" fill="url(#paint0_linear_17_336)"/>
<defs>
<linearGradient id="paint0_linear_17_336" x1="12" y1="2.00037" x2="12" y2="22.0004" gradientUnits="userSpaceOnUse">
<stop stop-color="#FD5472"/>
<stop offset="1" stop-color="#BC2649"/>
</linearGradient>
</defs>
</svg>
