<svg width="94" height="50" viewBox="0 0 94 50" fill="none" xmlns="http://www.w3.org/2000/svg">
<path d="M17.832 21.384C20.04 21.8 21.832 22.616 23.208 23.832C24.616 25.048 25.32 26.872 25.32 29.304C25.32 32.856 24.04 35.368 21.48 36.84C18.952 38.28 15.4 39 10.824 39H0.119995V5.73602H9.528C14.2 5.73602 17.768 6.40802 20.232 7.75202C22.696 9.06402 23.928 11.224 23.928 14.232C23.928 16.184 23.336 17.768 22.152 18.984C21 20.168 19.56 20.968 17.832 21.384ZM7.992 11.304V19.032H10.92C14.248 19.032 15.912 17.688 15.912 15C15.912 13.656 15.464 12.712 14.568 12.168C13.672 11.592 12.248 11.304 10.296 11.304H7.992ZM10.872 33.288C12.952 33.288 14.52 32.984 15.576 32.376C16.664 31.736 17.208 30.568 17.208 28.872C17.208 25.8 15.288 24.264 11.448 24.264H7.992V33.288H10.872Z" fill="#141414"/>
<path d="M37.185 13.512V39H29.601V13.512H37.185ZM33.345 0.0720215C34.657 0.0720215 35.729 0.488022 36.561 1.32002C37.425 2.12002 37.857 3.14402 37.857 4.39202C37.857 5.64002 37.425 6.68002 36.561 7.51202C35.729 8.31202 34.657 8.71202 33.345 8.71202C32.033 8.71202 30.961 8.31202 30.129 7.51202C29.297 6.68002 28.881 5.64002 28.881 4.39202C28.881 3.14402 29.297 2.12002 30.129 1.32002C30.961 0.488022 32.033 0.0720215 33.345 0.0720215Z" fill="#141414"/>
<path d="M49.9159 39.816C47.7079 39.816 45.9799 39.192 44.7319 37.944C43.5159 36.664 42.9079 34.856 42.9079 32.52V3.38402L50.4919 2.56802V32.232C50.4919 33.288 50.9239 33.816 51.7879 33.816C52.2359 33.816 52.6519 33.736 53.0359 33.576L54.5239 38.952C53.1479 39.528 51.6119 39.816 49.9159 39.816Z" fill="#141414"/>
<path d="M64.1659 39.816C61.9579 39.816 60.2299 39.192 58.9819 37.944C57.7659 36.664 57.1579 34.856 57.1579 32.52V3.38402L64.7419 2.56802V32.232C64.7419 33.288 65.1739 33.816 66.0379 33.816C66.4859 33.816 66.9019 33.736 67.2859 33.576L68.7739 38.952C67.3979 39.528 65.8619 39.816 64.1659 39.816Z" fill="#141414"/>
<path d="M85.2431 39.048C84.2191 42.344 82.5391 44.872 80.2031 46.632C77.8991 48.424 74.7951 49.432 70.8911 49.656L70.0751 44.328C72.5071 44.008 74.2991 43.464 75.4511 42.696C76.6351 41.928 77.5791 40.696 78.2831 39H75.6911L67.9151 13.512H75.9791L80.5391 34.152L85.5311 13.512H93.3551L85.2431 39.048Z" fill="#141414"/>
</svg>
